<svg width="165" height="131" viewBox="0 0 165 131" fill="none" xmlns="http://www.w3.org/2000/svg">
<path d="M51.4413 130.509C83.8762 130.509 102.513 103.987 102.513 65.2806C102.513 26.5737 83.8762 0.0523596 51.4413 0.0523596C19.0064 0.0523596 0.369787 26.5737 0.369787 65.2806C0.369787 103.987 19.0064 130.509 51.4413 130.509ZM51.4413 102.554C36.3887 102.554 29.0415 89.4724 29.0415 65.2806C29.0415 41.0888 36.3887 28.0073 51.4413 28.0073C66.494 28.0073 73.8411 41.0888 73.8411 65.2806C73.8411 89.4724 66.494 102.554 51.4413 102.554ZM139.311 2.56114L106.518 14.3882L113.506 38.9384L135.727 32.8457V128H164.399V2.56114H139.311Z" fill="white"/>
</svg>
