<svg width="12" height="12" viewBox="0 0 12 12" fill="none" xmlns="http://www.w3.org/2000/svg">
<path d="M11.864 3.01704C11.783 2.92005 11.6633 2.86371 11.537 2.86304H9.22496V4.09004C9.22496 4.65304 8.74096 5.11204 8.14496 5.11204C7.55096 5.11204 7.06696 4.65404 7.06696 4.09004V2.86304H4.90896V4.09004C4.90896 4.65304 4.42396 5.11204 3.82896 5.11204C3.23396 5.11204 2.75096 4.65404 2.75096 4.09004V2.86304H0.437959C0.311629 2.86384 0.192045 2.92016 0.110959 3.01704C0.0272086 3.11641 -0.0118618 3.24592 0.00295937 3.37504L0.778959 10.509C0.793959 11.315 1.42096 11.964 2.18996 11.964H9.78496C10.555 11.964 11.181 11.315 11.196 10.509L11.972 3.37504C11.9863 3.24597 11.9473 3.11664 11.864 3.01704Z" fill="#FFC600"/>
<path d="M3.82895 4.499C4.06795 4.499 4.26195 4.315 4.26195 4.09V1.84C4.26195 1.208 4.93395 0.818 5.55695 0.818H6.63595C7.29095 0.818 7.71395 1.219 7.71395 1.84V4.09C7.71395 4.315 7.90795 4.499 8.14495 4.499C8.38395 4.499 8.57795 4.315 8.57795 4.09V1.84C8.57695 0.773 7.76095 0 6.63595 0H5.55695C4.36695 0 3.39795 0.826 3.39795 1.84V4.09C3.39795 4.315 3.59195 4.499 3.82895 4.499Z" fill="#FFC600"/>
</svg>
