<svg width="32" height="32" viewBox="0 0 32 32" fill="none" xmlns="http://www.w3.org/2000/svg">
<g opacity="0.3">
<path d="M20.916 16.0001C20.916 18.7276 18.705 20.9386 15.9775 20.9386C13.2501 20.9386 11.039 18.7276 11.039 16.0001C11.039 15.6061 11.09 15.2271 11.177 14.8601H10.28V21.6981H21.676V14.8601H20.779C20.865 15.2271 20.916 15.6061 20.916 16.0001Z" fill="white"/>
<path fill-rule="evenodd" clip-rule="evenodd" d="M21.676 10.302H18.637V13.341H21.676V10.302ZM18.637 16C18.637 17.466 17.444 18.659 15.978 18.659C14.511 18.659 13.319 17.466 13.319 16C13.319 14.534 14.512 13.341 15.978 13.341C17.444 13.341 18.637 14.534 18.637 16Z" fill="white"/>
<path fill-rule="evenodd" clip-rule="evenodd" d="M0 16C0 7.164 7.164 0 16 0C24.837 0 32 7.164 32 16C32 24.837 24.837 32 16 32C7.164 32 0 24.837 0 16ZM21.676 23.977C22.9333 23.9737 23.9517 22.9553 23.955 21.698H23.954V10.302C23.9502 9.04494 22.9321 8.02684 21.675 8.023H10.279C9.02194 8.02684 8.00384 9.04494 8 10.302V21.698C8.0033 22.9553 9.02171 23.9737 10.279 23.977H21.676Z" fill="white"/>
</g>
</svg>
