<svg width="27" height="35" viewBox="0 0 27 35" fill="none" xmlns="http://www.w3.org/2000/svg">
<path fill-rule="evenodd" clip-rule="evenodd" d="M13.472 0L13.62 0.017L26.945 1.412V26.075L26.903 26.1L13.473 34.09L0 26.073V1.412L13.472 0ZM13.495 5.334L25.019 12.127H25.02V3.147L13.473 1.935L1.925 3.147V12.118L13.319 5.333V5.224L13.407 5.28L13.494 5.23L13.495 5.334ZM13.405 6.787L24.923 13.5L20.444 16.14L13.351 11.919L13.337 13.334L19.241 16.847L18.381 17.354L13.351 14.362L13.337 15.777L17.164 18.052L16.382 18.575L13.351 16.788L13.337 18.201L15.19 19.292L13.39 20.373L2.034 13.622L13.405 6.787ZM13.336 21.918L1.925 15.127V24.979L13.472 31.85L25.02 24.978V14.957L21.605 16.993L21.616 22.17L13.473 27.042L13.427 27.017L5.406 22.195L5.419 20.781L13.392 25.521L13.374 24.445L5.395 19.65L5.41 18.234L13.352 22.962L13.336 21.918Z" fill="#FFC600"/>
</svg>
