<svg width="5" height="8" viewBox="0 0 5 8" fill="none" xmlns="http://www.w3.org/2000/svg">
<path d="M4.83002 4.13199L1.86102 1.14399C1.76702 1.0484 1.63858 0.994568 1.50452 0.994568C1.37046 0.994568 1.24202 1.0484 1.14802 1.14399C0.949914 1.34232 0.949914 1.66365 1.14802 1.86199L3.75902 4.49099L1.14802 7.11999C0.949684 7.31901 0.949684 7.64096 1.14802 7.83999C1.24202 7.93557 1.37046 7.9894 1.50452 7.9894C1.63858 7.9894 1.76702 7.93557 1.86102 7.83999L4.83002 4.85199C4.92464 4.75611 4.97749 4.62669 4.97702 4.49199C4.97781 4.35722 4.92492 4.22768 4.83002 4.13199Z" fill="black"/>
</svg>
