<svg width="118" height="63" viewBox="0 0 118 63" fill="none" xmlns="http://www.w3.org/2000/svg">
<path opacity="0.1" d="M57 2.89063C73.0162 2.89063 86 15.8745 86 31.8905C86 47.9069 73.0162 60.8907 57 60.8907C40.9837 60.8907 28 47.9069 28 31.8905C28 15.8745 40.9837 2.89063 57 2.89063Z" fill="#CD3944" fill-opacity="0.01" stroke="black" stroke-width="2"/>
<path opacity="0.2" d="M49.6652 19.4362V24.7562L45.8852 19.4362H44.2052V29.2362H46.4452V23.9162L50.2252 29.2362H51.9052V19.4362H49.6652ZM56.0711 27.0802V25.3442H59.5711V23.2162H56.0711V21.5922H59.9211V19.4362H53.8311V29.2362H59.9911V27.0802H56.0711ZM63.5038 29.2362H66.0518L67.6478 23.4542L69.2438 29.2362H71.7918L74.4938 19.4362H72.1418L70.4478 26.2962L68.5578 19.4362H66.7378L64.8478 26.2962L63.1538 19.4362H60.8018L63.5038 29.2362Z" fill="black"/>
</svg>
