<svg width="133" height="70" viewBox="0 0 133 70" fill="none" xmlns="http://www.w3.org/2000/svg">
<path fill-rule="evenodd" clip-rule="evenodd" d="M25.7737 0.488C25.6447 0.771 25.5157 2.596 25.5157 4.6C25.5157 4.85264 25.5163 5.08846 25.5168 5.30862C25.5215 7.14127 25.5234 7.88881 25.1536 8.2153C24.8988 8.44021 24.4676 8.46529 23.7394 8.50765C23.6104 8.51516 23.472 8.5232 23.3237 8.533L22.2937 8.61L22.1637 11.155L22.0347 13.699L20.8487 13.982C18.2687 14.65 16.8487 16.577 17.0567 19.276C17.1847 21.203 18.0867 22.617 19.6357 23.363C20.7447 23.876 21.1057 23.901 30.8817 23.901C36.4267 23.901 41.0187 23.98 41.0697 24.081C41.1207 24.211 39.9597 33.489 38.4897 44.721C37.0457 55.951 35.8077 65.718 35.7817 66.387C35.7307 68.004 36.6077 69.007 38.1297 69.007C39.3667 69.007 40.1417 68.367 40.4507 67.107C40.5807 66.593 41.9467 56.773 43.4687 45.285C44.9907 33.822 46.3317 24.416 46.4087 24.416C46.5127 24.416 47.4927 25.829 48.6017 27.552C48.784 27.8389 48.9529 28.1067 49.1107 28.3569C50.2453 30.1563 50.8017 31.0385 51.6013 31.469C52.3704 31.8831 53.3646 31.8791 55.3153 31.8714C55.6011 31.8702 55.9075 31.869 56.2367 31.869H60.5957V37.499L55.4627 37.576C50.7427 37.653 50.2527 37.703 49.5817 38.191C48.0087 39.348 47.9567 39.606 47.9567 49.168C47.9567 58.702 47.9827 58.96 49.4787 60.218L50.3297 60.913H81.6947L82.5457 60.217C84.0417 58.96 84.0657 58.702 84.0657 49.167C84.0657 39.607 84.0157 39.348 82.4437 38.191C81.7727 37.703 81.2827 37.653 76.5617 37.576L71.4297 37.499V31.869H75.7897C76.1188 31.869 76.425 31.8702 76.7108 31.8714C78.6603 31.8791 79.6541 31.8831 80.423 31.4692C81.2225 31.0388 81.7788 30.1567 82.9135 28.3572C83.0713 28.107 83.2403 27.839 83.4227 27.552C84.5327 25.829 85.5127 24.416 85.6167 24.416C85.6927 24.416 87.0347 33.822 88.5567 45.285C90.0787 56.773 91.4457 66.593 91.5747 67.106C91.8847 68.366 92.6567 69.008 93.8957 69.008C95.4167 69.008 96.2957 68.004 96.2427 66.387C96.2167 65.717 94.9787 55.951 93.5327 44.721C92.0647 33.489 90.9027 24.211 90.9557 24.081C91.0057 23.98 95.5967 23.901 101.146 23.901C110.92 23.901 111.281 23.876 112.389 23.363C113.937 22.617 114.839 21.203 114.969 19.276C115.175 16.577 113.757 14.65 111.177 13.982L109.99 13.699L109.863 11.155L109.733 8.61L108.702 8.533C108.553 8.5232 108.415 8.51515 108.286 8.50764C107.557 8.46528 107.126 8.44019 106.871 8.21514C106.5 7.8881 106.502 7.13881 106.507 5.30063C106.507 5.08276 106.508 4.84958 106.508 4.6C106.508 2.596 106.38 0.771 106.251 0.488C106.045 0.128 105.708 0 104.884 0C104.265 0 103.646 0.128 103.464 0.309C103.258 0.514 103.154 1.774 103.154 4.241C103.154 6.708 103.052 7.968 102.845 8.173C102.665 8.353 101.944 8.481 101.195 8.481C99.5697 8.481 99.5447 8.533 99.5447 11.591V13.878H32.4797V11.591C32.4797 8.533 32.4557 8.481 30.8297 8.481C30.0817 8.481 29.3597 8.352 29.1797 8.173C28.9727 7.968 28.8697 6.708 28.8697 4.241C28.8697 1.774 28.7667 0.514 28.5597 0.309C28.3797 0.129 27.7597 0 27.1417 0C26.3167 0 25.9817 0.128 25.7737 0.488ZM12.0517 0.258C6.50669 0.745 1.83769 1.85 0.574689 2.93C0.182372 3.26472 0.00323044 3.41756 4.33256e-05 3.57399C-0.00263496 3.70544 0.118943 3.83942 0.342689 4.086C0.986689 4.806 4.05569 5.731 7.58969 6.323C11.5877 6.991 20.0997 7.016 21.3137 6.374C22.5247 5.706 22.9377 4.96 22.9377 3.393C22.9377 1.774 22.3177 0.977 20.7197 0.54C19.2737 0.154 14.9397 0 12.0517 0.258ZM74.7827 46.776C74.0087 44.001 71.5057 41.507 68.6167 40.608C66.6037 39.966 65.3157 39.966 63.3037 40.608C60.4927 41.506 57.9907 44.053 57.2427 46.776C56.8037 48.32 56.9337 50.992 57.5257 52.56C58.2227 54.435 60.2077 56.569 62.0927 57.495C63.3817 58.137 63.8457 58.214 66.0127 58.214C68.1797 58.214 68.6437 58.137 69.9337 57.495C71.8137 56.57 73.8027 54.435 74.4987 52.56C75.0927 50.992 75.2217 48.319 74.7827 46.776Z" fill="#363636"/>
<path fill-rule="evenodd" clip-rule="evenodd" d="M109.346 1.77399C109.758 1.05299 110.996 0.513991 112.776 0.282991C115.046 -0.0250087 116.053 -0.0250087 119.534 0.257991C125.492 0.744991 130.11 1.79999 131.45 2.92999C132.173 3.54599 132.173 3.54599 131.683 4.08599C131.038 4.80599 127.969 5.73099 124.435 6.32299C122.37 6.68199 120.229 6.81099 116.568 6.81099C111.152 6.81099 110.428 6.65599 109.5 5.34599C109.036 4.67799 108.959 2.54399 109.346 1.77399ZM31.5787 3.59799C31.5787 1.28499 32.1717 0.821991 36.0917 0.153991H36.0907C36.9947 -8.73581e-06 42.5157 0.231991 44.9907 0.539991C49.1427 1.05399 52.7797 2.02999 54.0447 2.92999C55.6677 4.13799 51.2067 5.85999 44.3467 6.68199C41.0187 7.06799 35.3967 7.01599 33.8467 6.55399C32.0417 6.01399 31.5787 5.42299 31.5787 3.59799ZM60.7247 50.168C60.2867 48.087 61.7567 45.363 63.7937 44.438H63.7927C64.3867 44.181 65.3667 43.949 66.0127 43.949C68.4367 43.949 70.6027 45.697 71.1707 48.087C71.7107 50.323 70.7057 52.712 68.7207 53.87C65.5477 55.721 61.4987 53.845 60.7247 50.168ZM89.4837 0.257991C83.1647 0.847991 77.6197 2.33899 77.6197 3.44399C77.6197 5.16599 85.4597 6.91399 93.2497 6.93899C99.0537 6.93899 100.446 6.29699 100.446 3.59899C100.446 1.77399 99.8267 0.976991 98.0727 0.513991C96.4227 0.102991 92.3977 -8.71718e-06 89.4837 0.257991Z" fill="#363636"/>
</svg>
