<svg width="108" height="66" viewBox="0 0 108 66" fill="none" xmlns="http://www.w3.org/2000/svg">
<path d="M98.967 5.07397C99.719 6.51497 100.176 8.15397 100.176 9.89197V30.994C100.176 35.61 97.084 39.521 92.93 40.894C91.605 44.881 89.152 48.748 84.879 51.326C76.203 56.557 53.755 56.163 53.681 56.163C53.603 56.163 31.168 56.558 22.492 51.326C18.276 48.781 15.784 44.979 14.45 41.047C10.032 39.838 6.694 35.796 6.694 30.994V9.89297C6.694 8.20497 7.121 6.61097 7.833 5.19997C4.17 6.10897 0 7.91797 0 11.434C0 17.677 0 37.121 0 41.417C0 51.668 11.839 65.85 53.657 65.85C95.477 65.85 107.314 51.668 107.314 41.417C107.314 37.121 107.314 17.677 107.314 11.434C107.313 7.74997 102.738 5.93997 98.967 5.07397Z" fill="#363636"/>
<path fill-rule="evenodd" clip-rule="evenodd" d="M86.084 39.459H20.561C14.997 39.459 10.486 34.946 10.486 29.382V10.935C10.486 5.37099 14.997 0.859985 20.561 0.859985H86.084C91.648 0.859985 96.158 5.37198 96.158 10.935V29.382C96.158 34.946 91.648 39.459 86.084 39.459ZM85.264 12.038C85.264 11.171 84.562 10.468 83.695 10.468C82.828 10.468 82.127 11.17 82.127 12.038C82.127 12.904 82.828 13.607 83.695 13.607C84.562 13.607 85.264 12.904 85.264 12.038ZM83.695 14.507C84.562 14.507 85.264 15.21 85.264 16.075C85.264 16.942 84.562 17.644 83.695 17.644C82.828 17.644 82.127 16.942 82.127 16.075C82.127 15.21 82.828 14.507 83.695 14.507ZM85.264 20.115C85.264 19.248 84.562 18.546 83.695 18.546C82.828 18.546 82.127 19.248 82.127 20.115C82.127 20.981 82.828 21.684 83.695 21.684C84.562 21.684 85.264 20.981 85.264 20.115ZM83.695 22.373C84.562 22.373 85.264 23.077 85.264 23.942C85.264 24.809 84.562 25.51 83.695 25.51C82.828 25.51 82.127 24.809 82.127 23.942C82.127 23.076 82.828 22.373 83.695 22.373ZM85.264 27.981C85.264 27.114 84.562 26.412 83.695 26.412C82.828 26.412 82.127 27.114 82.127 27.981C82.127 28.845 82.828 29.549 83.695 29.549C84.562 29.549 85.264 28.846 85.264 27.981ZM79.656 10.468C80.523 10.468 81.224 11.171 81.224 12.038C81.224 12.904 80.523 13.607 79.656 13.607C78.791 13.607 78.088 12.904 78.088 12.038C78.088 11.17 78.791 10.468 79.656 10.468ZM81.224 27.981C81.224 27.114 80.523 26.412 79.656 26.412C78.791 26.412 78.088 27.114 78.088 27.981C78.088 28.845 78.791 29.549 79.656 29.549C80.523 29.549 81.224 28.846 81.224 27.981ZM75.619 10.468C76.484 10.468 77.187 11.171 77.187 12.038C77.187 12.904 76.484 13.607 75.619 13.607C74.752 13.607 74.05 12.904 74.05 12.038C74.05 11.17 74.752 10.468 75.619 10.468ZM77.187 16.075C77.187 15.21 76.484 14.507 75.619 14.507C74.752 14.507 74.05 15.21 74.05 16.075C74.05 16.942 74.752 17.644 75.619 17.644C76.484 17.644 77.187 16.942 77.187 16.075ZM75.619 18.546C76.484 18.546 77.187 19.248 77.187 20.115C77.187 20.981 76.484 21.684 75.619 21.684C74.752 21.684 74.05 20.981 74.05 20.115C74.05 19.248 74.752 18.546 75.619 18.546ZM77.187 23.942C77.187 23.077 76.484 22.373 75.619 22.373C74.752 22.373 74.05 23.076 74.05 23.942C74.05 24.809 74.752 25.51 75.619 25.51C76.484 25.51 77.187 24.809 77.187 23.942ZM75.619 26.412C76.484 26.412 77.187 27.114 77.187 27.981C77.187 28.846 76.484 29.549 75.619 29.549C74.752 29.549 74.05 28.845 74.05 27.981C74.05 27.114 74.752 26.412 75.619 26.412ZM69.533 12.038C69.533 11.171 68.832 10.468 67.965 10.468C67.1 10.468 66.396 11.17 66.397 12.038C66.397 12.904 67.098 13.607 67.965 13.607C68.832 13.607 69.533 12.904 69.533 12.038ZM67.965 18.546C68.832 18.546 69.533 19.248 69.533 20.115C69.533 20.981 68.832 21.684 67.965 21.684C67.098 21.684 66.397 20.981 66.397 20.115C66.396 19.248 67.1 18.546 67.965 18.546ZM69.533 23.995C69.533 23.128 68.832 22.427 67.965 22.427C67.1 22.427 66.396 23.128 66.397 23.995C66.397 24.86 67.098 25.564 67.965 25.564C68.832 25.564 69.533 24.86 69.533 23.995ZM67.965 26.412C68.832 26.412 69.533 27.114 69.533 27.981C69.533 28.846 68.832 29.549 67.965 29.549C67.098 29.549 66.397 28.845 66.397 27.981C66.396 27.114 67.1 26.412 67.965 26.412ZM65.496 12.038C65.496 11.171 64.793 10.468 63.926 10.468C63.061 10.468 62.356 11.17 62.357 12.038C62.357 12.904 63.061 13.607 63.926 13.607C64.793 13.607 65.496 12.904 65.496 12.038ZM63.926 18.546C64.793 18.546 65.496 19.248 65.496 20.115C65.496 20.981 64.793 21.684 63.926 21.684C63.061 21.684 62.357 20.981 62.357 20.115C62.356 19.248 63.061 18.546 63.926 18.546ZM65.496 27.981C65.496 27.114 64.793 26.412 63.926 26.412C63.061 26.412 62.356 27.114 62.357 27.981C62.357 28.845 63.061 29.549 63.926 29.549C64.793 29.549 65.496 28.846 65.496 27.981ZM59.888 10.468C60.753 10.468 61.457 11.171 61.457 12.038C61.457 12.904 60.753 13.607 59.888 13.607C59.021 13.607 58.32 12.904 58.32 12.038C58.319 11.17 59.021 10.468 59.888 10.468ZM61.457 16.075C61.457 15.21 60.753 14.507 59.888 14.507C59.021 14.507 58.319 15.21 58.32 16.075C58.32 16.942 59.021 17.644 59.888 17.644C60.753 17.644 61.457 16.942 61.457 16.075ZM59.888 18.546C60.753 18.546 61.457 19.248 61.457 20.115C61.457 20.981 60.753 21.684 59.888 21.684C59.021 21.684 58.32 20.981 58.32 20.115C58.319 19.248 59.021 18.546 59.888 18.546ZM61.457 27.981C61.457 27.114 60.753 26.412 59.888 26.412C59.021 26.412 58.319 27.114 58.32 27.981C58.32 28.845 59.021 29.549 59.888 29.549C60.753 29.549 61.457 28.846 61.457 27.981ZM51.598 10.468C52.465 10.468 53.167 11.171 53.167 12.038C53.167 12.904 52.465 13.607 51.598 13.607C50.731 13.607 50.03 12.904 50.03 12.038C50.029 11.17 50.731 10.468 51.598 10.468ZM53.167 16.075C53.167 15.21 52.465 14.507 51.598 14.507C50.731 14.507 50.029 15.21 50.03 16.075C50.03 16.942 50.731 17.644 51.598 17.644C52.465 17.644 53.167 16.942 53.167 16.075ZM51.598 18.546C52.465 18.546 53.167 19.248 53.167 20.115C53.167 20.981 52.465 21.684 51.598 21.684C50.731 21.684 50.03 20.981 50.03 20.115C50.029 19.248 50.731 18.546 51.598 18.546ZM53.167 23.995C53.167 23.128 52.465 22.427 51.598 22.427C50.731 22.427 50.029 23.128 50.03 23.995C50.03 24.86 50.731 25.564 51.598 25.564C52.465 25.564 53.167 24.86 53.167 23.995ZM51.598 26.412C52.465 26.412 53.167 27.114 53.167 27.981C53.167 28.846 52.465 29.549 51.598 29.549C50.731 29.549 50.03 28.845 50.03 27.981C50.029 27.114 50.731 26.412 51.598 26.412ZM49.127 16.075C49.127 15.21 48.426 14.507 47.559 14.507C46.691 14.507 45.99 15.21 45.99 16.075C45.99 16.942 46.692 17.644 47.559 17.644C48.426 17.644 49.127 16.942 49.127 16.075ZM39.057 14.295C39.922 14.295 40.626 14.998 40.626 15.863C40.626 16.73 39.922 17.432 39.057 17.432C38.19 17.432 37.486 16.729 37.486 15.863C37.486 14.998 38.189 14.295 39.057 14.295ZM40.626 19.903C40.626 19.036 39.922 18.333 39.057 18.333C38.189 18.333 37.486 19.036 37.486 19.903C37.486 20.769 38.19 21.473 39.057 21.473C39.922 21.473 40.626 20.769 40.626 19.903ZM35.018 10.255C35.883 10.255 36.586 10.958 36.586 11.825C36.586 12.691 35.882 13.393 35.018 13.393C34.151 13.393 33.449 12.69 33.449 11.825C33.449 10.958 34.15 10.255 35.018 10.255ZM36.586 15.863C36.586 14.998 35.883 14.295 35.018 14.295C34.15 14.295 33.449 14.998 33.449 15.863C33.449 16.729 34.151 17.432 35.018 17.432C35.882 17.432 36.586 16.73 36.586 15.863ZM35.018 18.333C35.883 18.333 36.586 19.036 36.586 19.903C36.586 20.769 35.882 21.473 35.018 21.473C34.151 21.473 33.449 20.769 33.449 19.903C33.449 19.036 34.15 18.333 35.018 18.333ZM36.586 23.942C36.586 23.077 35.883 22.373 35.018 22.373C34.15 22.373 33.449 23.076 33.449 23.942C33.449 24.809 34.151 25.51 35.018 25.51C35.882 25.51 36.586 24.809 36.586 23.942ZM30.764 14.295C31.631 14.295 32.333 14.998 32.333 15.863C32.333 16.73 31.631 17.432 30.764 17.432C29.897 17.432 29.196 16.729 29.196 15.863C29.196 14.998 29.897 14.295 30.764 14.295ZM32.333 19.903C32.333 19.036 31.631 18.333 30.764 18.333C29.897 18.333 29.196 19.036 29.196 19.903C29.196 20.769 29.897 21.473 30.764 21.473C31.631 21.473 32.333 20.769 32.333 19.903ZM30.764 22.373C31.631 22.373 32.333 23.077 32.333 23.942C32.333 24.809 31.631 25.51 30.764 25.51C29.897 25.51 29.196 24.809 29.196 23.942C29.196 23.076 29.897 22.373 30.764 22.373ZM32.333 27.981C32.333 27.114 31.631 26.412 30.764 26.412C29.897 26.412 29.196 27.114 29.196 27.981C29.196 28.845 29.897 29.549 30.764 29.549C31.631 29.549 32.333 28.846 32.333 27.981ZM26.3 10.255C27.167 10.255 27.871 10.958 27.871 11.825C27.871 12.691 27.167 13.393 26.3 13.393C25.435 13.393 24.731 12.69 24.731 11.825C24.731 10.958 25.435 10.255 26.3 10.255ZM27.871 15.863C27.871 14.998 27.167 14.295 26.3 14.295C25.435 14.295 24.731 14.998 24.731 15.863C24.731 16.729 25.435 17.432 26.3 17.432C27.167 17.432 27.871 16.73 27.871 15.863ZM26.3 18.333C27.167 18.333 27.871 19.036 27.871 19.903C27.871 20.769 27.167 21.473 26.3 21.473C25.435 21.473 24.731 20.769 24.731 19.903C24.731 19.036 25.435 18.333 26.3 18.333ZM27.871 23.942C27.871 23.077 27.167 22.373 26.3 22.373C25.435 22.373 24.731 23.076 24.731 23.942C24.731 24.809 25.435 25.51 26.3 25.51C27.167 25.51 27.871 24.809 27.871 23.942ZM22.263 14.295C23.128 14.295 23.832 14.998 23.832 15.863C23.832 16.73 23.128 17.432 22.263 17.432C21.396 17.432 20.694 16.729 20.694 15.863C20.694 14.998 21.396 14.295 22.263 14.295ZM23.832 19.903C23.832 19.036 23.128 18.333 22.263 18.333C21.396 18.333 20.694 19.036 20.694 19.903C20.694 20.769 21.396 21.473 22.263 21.473C23.128 21.473 23.832 20.769 23.832 19.903Z" fill="#363636"/>
</svg>
