<svg width="87" height="117" viewBox="0 0 87 117" fill="none" xmlns="http://www.w3.org/2000/svg">
<path fill-rule="evenodd" clip-rule="evenodd" d="M31.497 0H54.654V2.758H31.497V0ZM3.33 4.011H82.821C83.6668 4.01073 84.478 4.34646 85.0763 4.94433C85.6745 5.5422 86.0107 6.35322 86.011 7.199V53.612C86.0113 54.4579 85.6754 55.2691 85.0773 55.8673C84.4791 56.4654 83.6679 56.8013 82.822 56.801H3.33C2.48423 56.8013 1.67305 56.4653 1.0751 55.8672C0.477143 55.2691 0.141468 54.4578 0.141998 53.612V7.199C0.141998 5.43832 1.56932 4.011 3.33 4.011ZM8.166 37.236H8.392V23.576H8.166C7.32032 23.5757 6.50918 23.9115 5.9111 24.5094C5.31301 25.1073 4.977 25.9183 4.977 26.764V34.047C4.97755 35.808 6.40499 37.2354 8.166 37.236ZM69.623 52.408H13.341V8.402H69.623V52.408ZM74.254 30.405C74.254 32.697 76.111 34.552 78.4 34.552C80.6903 34.552 82.547 32.6953 82.547 30.405C82.547 28.1147 80.6903 26.258 78.4 26.258C76.11 26.258 74.254 28.113 74.254 30.405ZM46.608 61.888V64.861H51.403L56.454 63.648V70.359L51.403 69.146H46.607V97.136C48.816 98.1007 50.2436 100.283 50.243 102.693V117H35.908V102.693C35.908 100.282 37.3347 98.1005 39.543 97.134V61.888H31.498V59.13H54.654V61.888H46.608Z" fill="#363636"/>
</svg>
