<svg width="72" height="87" viewBox="0 0 72 87" fill="none" xmlns="http://www.w3.org/2000/svg">
<path fill-rule="evenodd" clip-rule="evenodd" d="M52.038 0C52.771 0 53.349 0.754 53.349 1.49H53.348V5.012H7.672V1.49C7.672 0.754 8.32 0 9.053 0H52.038ZM44.605 81.809H54.202C54.735 81.809 55.132 82.245 55.132 82.78V85.953C55.132 86.488 54.735 87.001 54.202 87.001H28.13C27.598 87.001 27.12 86.488 27.12 85.953V82.781C27.12 82.246 27.597 81.809 28.13 81.809H37.648V79.483H18.863C18.386 80.913 17.105 81.809 15.594 81.809H3.559C1.642 81.809 0 80.253 0 78.329V75.311C0 73.387 1.642 71.784 3.559 71.785H15.593C17.017 71.785 18.237 72.679 18.774 73.933H37.647V71.426H44.605V81.809ZM60.666 12.39C59.7826 9.38863 57.0237 7.33095 53.895 7.34H7.148C3.25 7.34 0 10.449 0 14.361V61.261C0 65.173 3.25 68.382 7.148 68.382H53.895C57.793 68.382 61.021 65.173 61.021 61.261V50.915C67.3051 46.5619 71.045 39.3955 71.022 31.751C71.021 23.672 66.89 16.57 60.666 12.39ZM6.337 56.23C6.337 59.501 8.979 62.151 12.238 62.151C15.497 62.151 18.14 59.501 18.14 56.23C18.14 52.96 15.497 50.308 12.238 50.308C8.979 50.308 6.337 52.96 6.337 56.23ZM18.199 29.546C18.1995 29.9226 18.0504 30.284 17.7845 30.5507C17.5186 30.8174 17.1576 30.9675 16.781 30.968H7.841C7.46439 30.9675 7.10342 30.8174 6.83749 30.5507C6.57157 30.284 6.42247 29.9226 6.423 29.546V15.386C6.4222 15.0092 6.57118 14.6476 6.83714 14.3807C7.1031 14.1138 7.46422 13.9635 7.841 13.963H16.78C17.1568 13.9635 17.5179 14.1138 17.7839 14.3807C18.0498 14.6476 18.1988 15.0092 18.198 15.386V29.546H18.199ZM27.705 31.735C27.705 42.848 36.686 51.858 47.762 51.858C58.839 51.858 67.82 42.849 67.82 31.735C67.82 20.621 58.839 11.611 47.762 11.611C36.685 11.611 27.705 20.622 27.705 31.735Z" fill="#363636"/>
<path d="M47.762 43.964C54.4932 43.964 59.95 38.4889 59.95 31.735C59.95 24.9811 54.4932 19.506 47.762 19.506C41.0307 19.506 35.574 24.9811 35.574 31.735C35.574 38.4889 41.0307 43.964 47.762 43.964Z" fill="#363636"/>
<path d="M31.562 33.171C32.3545 33.171 32.997 32.5286 32.997 31.736C32.997 30.9435 32.3545 30.301 31.562 30.301C30.7695 30.301 30.127 30.9435 30.127 31.736C30.127 32.5286 30.7695 33.171 31.562 33.171Z" fill="#363636"/>
<path d="M63.963 33.171C64.7555 33.171 65.398 32.5286 65.398 31.736C65.398 30.9435 64.7555 30.301 63.963 30.301C63.1705 30.301 62.528 30.9435 62.528 31.736C62.528 32.5286 63.1705 33.171 63.963 33.171Z" fill="#363636"/>
<path d="M39.109 19.429C39.9015 19.429 40.544 18.7865 40.544 17.994C40.544 17.2015 39.9015 16.559 39.109 16.559C38.3165 16.559 37.674 17.2015 37.674 17.994C37.674 18.7865 38.3165 19.429 39.109 19.429Z" fill="#363636"/>
<path d="M56.415 46.912C57.2048 46.912 57.845 46.2691 57.845 45.476C57.845 44.6829 57.2048 44.04 56.415 44.04C55.6252 44.04 54.985 44.6829 54.985 45.476C54.985 46.2691 55.6252 46.912 56.415 46.912Z" fill="#363636"/>
<path d="M55.697 19C56.4896 19 57.132 18.3575 57.132 17.565C57.132 16.7725 56.4896 16.13 55.697 16.13C54.9045 16.13 54.262 16.7725 54.262 17.565C54.262 18.3575 54.9045 19 55.697 19Z" fill="#363636"/>
<path d="M39.828 47.341C40.6205 47.341 41.263 46.6985 41.263 45.906C41.263 45.1135 40.6205 44.471 39.828 44.471C39.0355 44.471 38.393 45.1135 38.393 45.906C38.393 46.6985 39.0355 47.341 39.828 47.341Z" fill="#363636"/>
</svg>
