<svg width="16" height="16" viewBox="0 0 16 16" fill="none" xmlns="http://www.w3.org/2000/svg">
<path fill-rule="evenodd" clip-rule="evenodd" d="M12.596 11.196L15.7 14.3C15.8953 14.4798 16.0045 14.7345 16 15C16 15.5523 15.5523 16 15 16C14.68 16 14.485 15.884 14.3 15.7L11.193 12.596C9.98501 13.5071 8.51309 14 7 14C3.13401 14 0 10.866 0 7C0 3.13401 3.13401 0 7 0C10.866 0 14 3.13401 14 7C13.9995 8.51393 13.5067 9.98664 12.596 11.196ZM7 2C4.238 2 2 4.238 2 7C2 9.762 4.238 12 7 12C9.762 12 12 9.762 12 7C12 4.238 9.762 2 7 2Z" fill="black"/>
</svg>
