<svg width="32" height="32" viewBox="0 0 32 32" fill="none" xmlns="http://www.w3.org/2000/svg">
<g opacity="0.3">
<path fill-rule="evenodd" clip-rule="evenodd" d="M0 16C0 7.164 7.164 0 16 0C24.837 0 32 7.164 32 16C32 24.837 24.837 32 16 32C7.164 32 0 24.837 0 16ZM12.952 23.511C20.481 23.641 23.693 19.325 23.944 12.809C24.557 12.58 25.467 11.818 25.651 10.855C25.651 10.855 24.975 11.495 24.228 11.33C24.594 11.084 25.159 10.454 25.163 9.621C24.7532 9.74228 24.3507 9.87062 23.948 9.99905C23.6235 10.1025 23.2988 10.2061 22.97 10.306C22.324 9.428 20.909 8.689 19.069 9.168C17.141 9.794 16.128 11.279 15.901 13.493C12.172 13.332 10.081 11.64 8.097 9.85C6.922 11.387 8.303 14.398 9.071 14.631C8.775 14.692 7.922 14.491 7.611 14.174C7.53864 16.1194 8.74981 16.866 9.95825 17.611C10.0692 17.6793 10.1801 17.7477 10.29 17.817C9.70272 17.9101 9.44787 17.8359 9.14257 17.7471C9.09385 17.7329 9.04384 17.7183 8.991 17.704C9.28317 19.8302 10.8028 20.199 11.872 20.4584C12.0032 20.4903 12.1275 20.5204 12.242 20.552C11.369 21.282 9.601 21.878 7.122 21.688C7.923 23.068 12.019 23.511 12.466 23.511H12.952Z" fill="white"/>
</g>
</svg>
